_________________________  Visit us at _________________________
  
http://p2pdl.com  ____________________________  http://p2pdl.com


Barfi 2012 BRRip 720p x264 AAC - ViZNU [P2PDL]
				
Genre: Comedy | Drama | Romance
Three young people learn that love can neither be defined nor contained by society's norms of normal and abnormal.
Director: Anurag Basu
Stars:  Ranbir Kapoor, Priyanka Chopra, Ileana D'Cruz and Haradhan Bannerjee
Rated: N/A

Imdb: http://www.imdb.com/title/tt2082197/

Trailer:


General
Format                         : MPEG-4
File size                      : 866 MiB
Duration                       : 2h 31mn
Overall bit rate mode          : Variable
Overall bit rate               : 802 Kbps
Movie name                     : Barfi 2012 BRRip 720p x264 AAC ViZNU [P2PDL]

Source                         : 720p - x264 - AC3 - [DDR] (Thanks)

Video
ID                             : 1
Format                         : AVC
Width                          : 1 280 pixels
Height                         : 544 pixels
Display aspect ratio           : 2.35:1
Frame rate mode                : Variable
Frame rate                     : 24.000 fps
Stream size                    : 756 MiB (87%)
Writing library                : x264 core 128

Audio
Format                         : AAC
Bit rate                       : 96.0 Kbps
Sampling rate                  : 48.0 KHz
Stream size                    : 104 MiB (12%)
Language                       : Hindi

Subtitle                       : Yes (English)


Screens:
 
http://www.shotpix.com/images/39326015702910265816.jpg 
http://www.shotpix.com/images/70325140113204997824.jpg 
http://www.shotpix.com/images/88955107409940930896.jpg 
http://www.shotpix.com/images/79532535951533352391.jpg 
http://www.shotpix.com/images/30824305504541490152.jpg


Thumbs:
 
http://www.shotpix.com/images/03706248181790992470.jpg

----------------------------------------------------------------------------------------------------


Recommend to you to use latest version of VLC player. Install K-Lite Codec Pack or shark007 codecs
in case of any kind of problem in playback (For non-VLC Media Player users). Alternatively, install
Core AVC codecs, the fastest decoder that there is coupled with Community Center Codec Pack and play
on Windows Media Player Classic. Check sample to be sure.
Enjoy!

Greets to: Vitamin_X, a2zRG, MusiK_KinG, Neon, Kuroyukihime, TorDigger, Ash968, StyLishSaLH and staff members at
ExtraTorrent, TPB, H33T, KAT, 1337x, PublicHD, Ahashare, BTScene, SilverTorrent, LimeTorrents, TorrentMafia,
P2PDL, and all others.

Encoder Notes: Looking For Early Access To Anything You Can Provide DVDScr, R5, DVDR, BluRay, Direct
Audio, Early Music Releases, Seedboxes, Dedicated Servers anything u can provide, Advance / Promo CDs/
DVDs. If You Got anything to offer contact me at "prg@hush.com".

Facebook Fan Page: www . facebook . com / p2pdl